<?xml version="1.0" encoding="utf-8" ?>
<svg baseProfile="full" height="100%" version="1.1" width="100%" xmlns="http://www.w3.org/2000/svg" xmlns:ev="http://www.w3.org/2001/xml-events" xmlns:xlink="http://www.w3.org/1999/xlink"><defs /><g id="shapes"><path d="m 12.0 45.0 C 56 60 -20 92 -8.0 11.0 C -11 -27 37 -5 -18.0 18.0 C -56 47 -50 -27 -72.0 25.0 C -68 -24 -46 -23 -93.0 -7.0 C -103 42 -104 32 -43.0 -41.0 C 2 -79 -45 -35 -4.0 -76.0 C 13 -91 -4 -26 14.0 -77.0 C 53 -121 -33 -67 32.0 -87.0 C 74 -106 17 -44 85.0 -58.0 C 69 -101 25 47 12.0 45.0" transform="translate(100,100)" /></g></svg>