<?xml version="1.0" encoding="UTF-8" standalone="no"?>
<!-- Created with Inkscape (http://www.inkscape.org/) -->

<svg
   width="210mm"
   height="297mm"
   viewBox="0 0 793.70081 1122.5197"
   version="1.1"
   id="svg5"
   sodipodi:docname="koi_formate.svg.2022_02_18_20_17_37.0.svg"
   inkscape:version="1.1.1 (3bf5ae0d25, 2021-09-20)"
   xmlns:inkscape="http://www.inkscape.org/namespaces/inkscape"
   xmlns:sodipodi="http://sodipodi.sourceforge.net/DTD/sodipodi-0.dtd"
   xmlns="http://www.w3.org/2000/svg"
   xmlns:svg="http://www.w3.org/2000/svg">
  <sodipodi:namedview
     id="namedview7"
     pagecolor="#505050"
     bordercolor="#eeeeee"
     borderopacity="1"
     inkscape:pageshadow="0"
     inkscape:pageopacity="0"
     inkscape:pagecheckerboard="0"
     inkscape:document-units="mm"
     showgrid="false"
     inkscape:zoom="1.0717735"
     inkscape:cx="242.58857"
     inkscape:cy="356.41859"
     inkscape:window-width="1920"
     inkscape:window-height="986"
     inkscape:window-x="-11"
     inkscape:window-y="-11"
     inkscape:window-maximized="1"
     inkscape:current-layer="layer2" />
	<defs>
    <pattern id="star" viewBox="-200 -200 200 200" height="50%" width="50%" >
      <path d="m 16.0 36.0 C 57 86 -50 138 -29.0 97.0 C -53 138 -84 139 -77.0 95.0 C -102 91 -51 -41 -35.0 -31.0 C -40 -78 120 -8 98.0 -8.0 C 143 -31 61 -12 16.0 36.0"/>
	  <path d="m 16.0 36.0 C 57 86 -50 138 -29.0 97.0 C -53 138 -84 139 -77.0 95.0 C -102 91 -51 -41 -35.0 -31.0 C -40 -78 120 -8 98.0 -8.0 C 143 -31 61 -12 16.0 36.0" transform="translate(100,100) rotate(20)"/>
    </pattern>
	</defs>
  <g
     id="layer1"
     inkscape:label="bordure"
     style="display:inline"
     inkscape:groupmode="layer">
    <path
       id="b_corps"
       style="display:inline;fill:none;stroke:#000000;stroke-width:1px;stroke-linecap:butt;stroke-linejoin:miter;stroke-opacity:1"
       d="m 483.3111,171.67807 c 0,0 40.58123,-16.07769 65.54557,-7.69752 m -17.7735,20.0795 c 0,0 8.20992,-11.09906 17.7735,-20.0795 m -59.31922,705.57518 c 0,0 -211.12127,-409.04746 19.79261,-637.32233 0,0 0,-19.79572 21.75311,-48.17335 m 2.61171,832.01285 c 0,0 10.60214,-39.63703 -44.15743,-146.51717 m -54.74407,188.50367 c 0,0 79.30781,64.3793 98.9015,-41.9865 M 483.3111,171.67807 c 0,0 -417.523841,275.38807 -246.82635,641.96944 36.29183,77.93852 99.17281,159.99922 198.30863,244.41189"
       inkscape:label="b_corps" />
    <path
       id="b_nageoire_gauche"
       style="display:inline;fill:none;stroke:#000000;stroke-width:1px;stroke-linecap:butt;stroke-linejoin:miter;stroke-opacity:1"
       d="m 235.53217,812.48702 c 0,0 40.40994,78.51073 62.34675,102.92161 M 235.53217,812.48702 c 0,0 -16.16397,-3.95853 -38.92549,7.25729 -22.76151,11.21582 -63.0065,19.79262 -63.0065,19.79262 0,0 -18.80299,98.63322 164.27874,75.8717"
       inkscape:label="b_nageoire_gauche" />
    <path
       id="b_nageoire_caudale"
       style="display:inline;fill:none;stroke:#000000;stroke-width:1px;stroke-linecap:butt;stroke-linejoin:miter;stroke-opacity:1"
       d="m 594.43833,128.65202 c 0,0 -41.73289,26.11483 -45.58166,35.32853 m -65.54557,7.69752 c 0,0 40.23705,-15.74493 65.54557,-7.69752 m 83.51751,-84.480196 c 0,0 -10.55606,28.699286 -37.93585,49.151666 M 632.37418,79.500354 C 621.48824,28.369421 591.79931,25.070651 591.79931,25.070651 l -2.63902,18.473111 c 0,0 1.97927,43.213885 -3.95852,64.985768 m -32.9877,-81.479617 c 0,0 7.25729,-24.0810201 36.94622,16.493849 M 483.3111,171.67807 c 0,0 43.83232,-55.56137 68.90297,-144.628157"
       inkscape:label="b_nageoire_caudale" />
    <path
       id="b_nageoire_droite"
       style="fill:none;stroke:#000000;stroke-width:1px;stroke-linecap:butt;stroke-linejoin:miter;stroke-opacity:1"
       d="m 535.39035,736.28544 c 0,0 7.91704,46.84253 -63.33638,96.32407 m 63.33638,-96.32407 c -19.79262,-84.77839 -100.07643,-6.72124 -100.07643,-6.72124 0,0 34.10105,97.76729 36.74005,103.04531"
       inkscape:label="b_nageoire_droite" />
  </g>
  <g
     inkscape:groupmode="layer"
     id="layer2"
     inkscape:label="remplissage"
     style="display:inline">
    <a
       id="a354" />
    <path
       style="display:inline;fill:#0000ff"
       d="m 492.50879,160.35998 c 22.8424,-33.54375 45.11172,-81.342592 58.45648,-125.470947 3.29843,-10.907255 5.61707,-13.851204 10.79354,-13.704472 5.52599,0.15664 13.74674,6.678107 22.7062,18.012668 l 4.04431,5.116439 -0.49539,23.328522 c -0.32078,15.106478 -1.02819,26.416309 -2.00712,32.089542 -1.35354,7.844168 -1.38332,10.598838 -0.10074,9.316248 0.23534,-0.23534 1.1126,-4.18906 1.94946,-8.78606 1.03213,-5.669588 1.64916,-15.71136 1.91821,-31.217481 0.383,-22.073831 1.83777,-41.630436 3.15745,-42.446045 1.80635,-1.11638 12.83102,5.607984 18.10565,11.043314 8.72103,8.986736 13.67345,18.256334 18.43592,34.507073 l 2.14023,7.302989 -3.66932,7.127943 c -10.09217,19.604857 -23.57487,34.297107 -43.7261,47.648797 -16.34578,10.83032 -25.97404,18.03202 -31.70912,23.71767 l -4.51222,4.47333 -7.42489,-1.13662 c -11.9494,-1.82925 -28.13786,0.4213 -51.90586,7.21606 -1.75448,0.50157 -1.10713,-0.86932 3.84331,-8.13897 z"
       id="nageoire_caudale"
       inkscape:label="nageoire_caudale" />
    <path
       style="fill:#0000ff"
       d="m 469.97384,823.67763 c -2.78549,-6.73083 -13.09293,-35.43784 -25.39251,-70.72003 -3.48843,-10.00678 -6.78631,-19.33247 -7.32864,-20.72375 -0.95072,-2.43898 -0.65615,-2.79497 8.22189,-9.9362 30.18967,-24.28368 56.15752,-30.63017 72.01273,-17.59979 9.50303,7.80993 17.23037,25.17564 16.9137,38.01028 -0.33767,13.68586 -8.22242,33.50316 -19.11268,48.03729 -7.23859,9.66064 -20.23117,22.76663 -31.21493,31.48745 -5.33389,4.23497 -10.05448,7.82416 -10.49021,7.97598 -0.43573,0.15184 -2.05994,-2.78722 -3.60935,-6.53123 z"
       id="nageoire_droite"
       inkscape:label="nageoire_droite" />
    <path
       style="fill:#0000ff"
       d="m 226.72701,917.15995 c -23.09387,-2.03633 -38.70609,-5.92898 -54.11591,-13.49288 -11.96657,-5.87378 -20.10562,-12.26779 -26.61019,-20.90487 -7.62007,-10.11829 -12.61008,-25.70647 -11.93399,-37.28029 l 0.28983,-4.96145 13.99549,-3.57739 c 19.73193,-5.04367 30.57312,-8.62634 46.65165,-15.41687 7.69752,-3.25094 17.23174,-6.57313 21.18716,-7.38264 7.56482,-1.54822 16.34355,-1.91539 18.11788,-0.75779 0.57787,0.37702 3.46607,5.51393 6.4182,11.41537 11.84218,23.67295 36.71373,65.31662 48.91413,81.89936 3.61398,4.91209 5.25433,7.86231 4.50665,8.1053 -6.1413,1.99588 -52.94865,3.63027 -67.4209,2.35415 z"
       id="nageoire_gauche"
       inkscape:label="nageoire_gauche" />
    <path
       style="fill:url(#star)"
       d="m 472.57851,1074.7861 c -18.51767,-3.745 -33.69729,-14.1271 -71.37434,-48.8166 C 345.20817,974.41375 297.65493,917.40253 264.96387,862.63204 229.56188,803.31967 208.88379,747.36925 200.7121,688.78074 197.00424,662.1965 196.93976,611.35469 200.57883,583.7077 211.28073,502.40268 249.3676,417.42303 310.36596,338.75 363.24977,270.54276 461.93432,179.80597 494.13035,169.78544 c 14.77104,-4.59726 39.34113,-7.88789 45.51145,-6.09527 l 5.01393,1.45666 -9.31993,11.1964 c -11.89739,14.29279 -21.00857,30.56924 -25.06993,44.78558 -2.54677,8.91471 -5.48642,13.64838 -14.42515,23.22849 -50.50844,54.13258 -82.12984,126.81963 -92.99385,213.76188 -3.43149,27.46135 -2.93176,93.43187 0.95414,125.95945 11.58293,96.95681 39.70913,192.28522 84.26019,285.58383 20.64634,43.23751 29.03169,63.55912 36.30767,87.99051 7.56822,25.41274 10.02725,45.19493 7.41123,59.62143 -7.66878,42.2908 -29.51672,63.5151 -59.20159,57.5117 z"
       id="corps"
       inkscape:label="corps" />
  </g>
</svg>
